<svg xmlns="http://www.w3.org/2000/svg" xmlns:xlink="http://www.w3.org/1999/xlink" version="1.1" width="256" height="256" viewBox="0 0 256 256" xml:space="preserve">

<defs>
</defs>
<g  style="stroke: none; stroke-width: 0; stroke-dasharray: none; stroke-linecap: butt; stroke-linejoin: miter; stroke-miterlimit: 10; fill: none; fill-rule: nonzero; opacity: 1;" transform="translate(1.4065934065934016 1.4065934065934016) scale(2.81 2.81)" >
	<path d="M 79.025 37.739 c 0.553 0 1 -0.448 1 -1 v -6.065 h 5.25 c 0.553 0 1 -0.448 1 -1 v -8.782 c 0 -0.049 -0.021 -0.092 -0.028 -0.139 c -0.011 -0.073 -0.017 -0.145 -0.043 -0.214 c -0.023 -0.061 -0.061 -0.111 -0.095 -0.166 c -0.034 -0.054 -0.062 -0.109 -0.106 -0.157 c -0.051 -0.055 -0.114 -0.093 -0.175 -0.135 c -0.039 -0.027 -0.067 -0.064 -0.111 -0.085 L 45.443 0.104 c -0.279 -0.138 -0.606 -0.138 -0.886 0 L 4.282 19.996 c -0.045 0.022 -0.074 0.06 -0.114 0.088 c -0.06 0.042 -0.122 0.079 -0.171 0.132 c -0.044 0.047 -0.072 0.103 -0.106 0.157 c -0.034 0.055 -0.072 0.105 -0.095 0.166 c -0.026 0.067 -0.032 0.138 -0.042 0.21 c -0.007 0.049 -0.029 0.092 -0.029 0.143 v 8.782 c 0 0.552 0.448 1 1 1 h 5.25 v 6.065 c 0 0.552 0.448 1 1 1 h 1.921 v 34.414 h -1.921 c -0.552 0 -1 0.447 -1 1 v 6.065 h -5.25 c -0.552 0 -1 0.447 -1 1 V 89 c 0 0.553 0.448 1 1 1 h 80.55 c 0.553 0 1 -0.447 1 -1 v -8.781 c 0 -0.553 -0.447 -1 -1 -1 h -5.25 v -6.065 c 0 -0.553 -0.447 -1 -1 -1 h -1.921 V 37.739 H 79.025 z M 78.025 35.739 h -1.921 h -9.783 H 64.4 v -5.065 h 13.625 V 35.739 z M 63.4 72.153 c -0.553 0 -1 0.447 -1 1 v 6.065 h -8.588 v -6.065 c 0 -0.553 -0.447 -1 -1 -1 h -1.921 V 37.739 h 1.921 c 0.553 0 1 -0.448 1 -1 v -6.065 H 62.4 v 6.065 c 0 0.552 0.447 1 1 1 h 1.921 v 34.414 H 63.4 z M 27.6 79.219 v -6.065 c 0 -0.553 -0.448 -1 -1 -1 h -1.921 V 37.739 H 26.6 c 0.552 0 1 -0.448 1 -1 v -6.065 h 8.587 v 6.065 c 0 0.552 0.448 1 1 1 h 1.921 v 34.414 h -1.921 c -0.552 0 -1 0.447 -1 1 v 6.065 H 27.6 z M 48.892 72.153 h -7.783 V 37.739 h 7.783 V 72.153 z M 49.892 35.739 h -9.783 h -1.921 v -5.065 h 13.625 v 5.065 H 49.892 z M 38.188 74.153 h 1.921 h 9.783 h 1.921 v 5.065 H 38.188 V 74.153 z M 45 2.115 l 35.993 17.777 H 9.008 L 45 2.115 z M 5.725 21.892 h 78.55 v 6.782 h -5.25 H 63.4 H 52.813 H 37.188 H 26.6 H 10.975 h -5.25 V 21.892 z M 11.975 30.674 H 25.6 v 5.065 h -1.921 h -9.783 h -1.921 V 30.674 z M 14.896 37.739 h 7.783 v 34.414 h -7.783 V 37.739 z M 11.975 74.153 h 1.921 h 9.783 H 25.6 v 5.065 H 11.975 V 74.153 z M 84.275 88 H 5.725 v -6.781 h 5.25 H 26.6 h 10.587 h 15.625 H 63.4 h 15.625 h 5.25 V 88 z M 78.025 79.219 H 64.4 v -5.065 h 1.921 h 9.783 h 1.921 V 79.219 z M 75.104 72.153 h -7.783 V 37.739 h 7.783 V 72.153 z" style="stroke: none; stroke-width: 1; stroke-dasharray: none; stroke-linecap: butt; stroke-linejoin: miter; stroke-miterlimit: 10; fill: #fff; fill-rule: nonzero; opacity: 1;" transform=" matrix(1 0 0 1 0 0) " stroke-linecap="round" />
</g>
</svg>